<mxfile host="app.diagrams.net" modified="2024-05-28T10:22:23.575Z" agent="Mozilla/5.0 (Windows NT 10.0; Win64; x64) AppleWebKit/537.36 (KHTML, like Gecko) Chrome/125.0.0.0 Safari/537.36 Edg/125.0.0.0" etag="fNBltxdh4jTwgWPEj55e" version="24.4.9" type="github">
  <diagram name="Page-1" id="1a_TE3r0BoyztJ4yZ2Tt">
    <mxGraphModel dx="1242" dy="569" grid="1" gridSize="10" guides="1" tooltips="1" connect="1" arrows="1" fold="1" page="1" pageScale="1" pageWidth="850" pageHeight="1100" math="0" shadow="0">
      <root>
        <mxCell id="0" />
        <mxCell id="1" parent="0" />
        <mxCell id="M8Bw8Wxcv3C07IOQbps6-3" style="edgeStyle=orthogonalEdgeStyle;rounded=0;orthogonalLoop=1;jettySize=auto;html=1;entryX=0.5;entryY=0;entryDx=0;entryDy=0;" edge="1" parent="1" source="M8Bw8Wxcv3C07IOQbps6-1" target="M8Bw8Wxcv3C07IOQbps6-2">
          <mxGeometry relative="1" as="geometry" />
        </mxCell>
        <mxCell id="M8Bw8Wxcv3C07IOQbps6-1" value="Start" style="ellipse;whiteSpace=wrap;html=1;" vertex="1" parent="1">
          <mxGeometry x="260" y="10" width="120" height="60" as="geometry" />
        </mxCell>
        <mxCell id="M8Bw8Wxcv3C07IOQbps6-5" value="" style="edgeStyle=orthogonalEdgeStyle;rounded=0;orthogonalLoop=1;jettySize=auto;html=1;" edge="1" parent="1" source="M8Bw8Wxcv3C07IOQbps6-2" target="M8Bw8Wxcv3C07IOQbps6-4">
          <mxGeometry relative="1" as="geometry" />
        </mxCell>
        <mxCell id="M8Bw8Wxcv3C07IOQbps6-2" value="All entires are displayed" style="rounded=0;whiteSpace=wrap;html=1;" vertex="1" parent="1">
          <mxGeometry x="260" y="100" width="120" height="50" as="geometry" />
        </mxCell>
        <mxCell id="M8Bw8Wxcv3C07IOQbps6-13" style="edgeStyle=orthogonalEdgeStyle;rounded=0;orthogonalLoop=1;jettySize=auto;html=1;exitX=0;exitY=0.5;exitDx=0;exitDy=0;entryX=0.5;entryY=0;entryDx=0;entryDy=0;" edge="1" parent="1" source="M8Bw8Wxcv3C07IOQbps6-4" target="M8Bw8Wxcv3C07IOQbps6-7">
          <mxGeometry relative="1" as="geometry" />
        </mxCell>
        <mxCell id="M8Bw8Wxcv3C07IOQbps6-14" style="edgeStyle=orthogonalEdgeStyle;rounded=0;orthogonalLoop=1;jettySize=auto;html=1;exitX=1;exitY=0.5;exitDx=0;exitDy=0;entryX=0.5;entryY=0;entryDx=0;entryDy=0;" edge="1" parent="1" source="M8Bw8Wxcv3C07IOQbps6-4" target="M8Bw8Wxcv3C07IOQbps6-11">
          <mxGeometry relative="1" as="geometry" />
        </mxCell>
        <mxCell id="M8Bw8Wxcv3C07IOQbps6-4" value="Operation" style="rhombus;whiteSpace=wrap;html=1;" vertex="1" parent="1">
          <mxGeometry x="280" y="180" width="80" height="80" as="geometry" />
        </mxCell>
        <mxCell id="M8Bw8Wxcv3C07IOQbps6-15" style="edgeStyle=orthogonalEdgeStyle;rounded=0;orthogonalLoop=1;jettySize=auto;html=1;exitX=1;exitY=0.5;exitDx=0;exitDy=0;entryX=0.5;entryY=0;entryDx=0;entryDy=0;" edge="1" parent="1" source="M8Bw8Wxcv3C07IOQbps6-7" target="M8Bw8Wxcv3C07IOQbps6-10">
          <mxGeometry relative="1" as="geometry" />
        </mxCell>
        <mxCell id="M8Bw8Wxcv3C07IOQbps6-16" style="edgeStyle=orthogonalEdgeStyle;rounded=0;orthogonalLoop=1;jettySize=auto;html=1;exitX=0;exitY=0.5;exitDx=0;exitDy=0;entryX=0.5;entryY=0;entryDx=0;entryDy=0;" edge="1" parent="1" source="M8Bw8Wxcv3C07IOQbps6-7" target="M8Bw8Wxcv3C07IOQbps6-9">
          <mxGeometry relative="1" as="geometry" />
        </mxCell>
        <mxCell id="M8Bw8Wxcv3C07IOQbps6-7" value="Validation of DOB, Age and Salary" style="rounded=0;whiteSpace=wrap;html=1;" vertex="1" parent="1">
          <mxGeometry x="140" y="290" width="120" height="60" as="geometry" />
        </mxCell>
        <mxCell id="M8Bw8Wxcv3C07IOQbps6-18" style="edgeStyle=orthogonalEdgeStyle;rounded=0;orthogonalLoop=1;jettySize=auto;html=1;exitX=0.5;exitY=1;exitDx=0;exitDy=0;entryX=0;entryY=0.5;entryDx=0;entryDy=0;" edge="1" parent="1" source="M8Bw8Wxcv3C07IOQbps6-9" target="M8Bw8Wxcv3C07IOQbps6-12">
          <mxGeometry relative="1" as="geometry" />
        </mxCell>
        <mxCell id="M8Bw8Wxcv3C07IOQbps6-9" value="Fill all data to&amp;nbsp;&lt;div&gt;create Employee record&lt;/div&gt;" style="shape=parallelogram;perimeter=parallelogramPerimeter;whiteSpace=wrap;html=1;fixedSize=1;" vertex="1" parent="1">
          <mxGeometry x="10" y="390" width="120" height="60" as="geometry" />
        </mxCell>
        <mxCell id="M8Bw8Wxcv3C07IOQbps6-17" style="edgeStyle=orthogonalEdgeStyle;rounded=0;orthogonalLoop=1;jettySize=auto;html=1;exitX=0.5;exitY=1;exitDx=0;exitDy=0;" edge="1" parent="1" source="M8Bw8Wxcv3C07IOQbps6-10" target="M8Bw8Wxcv3C07IOQbps6-12">
          <mxGeometry relative="1" as="geometry" />
        </mxCell>
        <mxCell id="M8Bw8Wxcv3C07IOQbps6-10" value="Edit selected&amp;nbsp;&lt;div&gt;employee details&amp;nbsp;&lt;/div&gt;" style="shape=parallelogram;perimeter=parallelogramPerimeter;whiteSpace=wrap;html=1;fixedSize=1;" vertex="1" parent="1">
          <mxGeometry x="260" y="390" width="120" height="60" as="geometry" />
        </mxCell>
        <mxCell id="M8Bw8Wxcv3C07IOQbps6-19" style="edgeStyle=orthogonalEdgeStyle;rounded=0;orthogonalLoop=1;jettySize=auto;html=1;exitX=0.5;exitY=1;exitDx=0;exitDy=0;entryX=1;entryY=0.5;entryDx=0;entryDy=0;" edge="1" parent="1" source="M8Bw8Wxcv3C07IOQbps6-11" target="M8Bw8Wxcv3C07IOQbps6-12">
          <mxGeometry relative="1" as="geometry" />
        </mxCell>
        <mxCell id="M8Bw8Wxcv3C07IOQbps6-11" value="Delete Employee record from the Database" style="rounded=0;whiteSpace=wrap;html=1;" vertex="1" parent="1">
          <mxGeometry x="390" y="290" width="120" height="60" as="geometry" />
        </mxCell>
        <mxCell id="M8Bw8Wxcv3C07IOQbps6-12" value="End" style="ellipse;whiteSpace=wrap;html=1;" vertex="1" parent="1">
          <mxGeometry x="260" y="490" width="120" height="60" as="geometry" />
        </mxCell>
      </root>
    </mxGraphModel>
  </diagram>
</mxfile>
